<svg width="30" height="27" viewBox="0 0 30 27" fill="none" xmlns="http://www.w3.org/2000/svg">
<path d="M23.036 21.8357L10.2288 21.8357L11.3019 24.3139C11.5303 24.8427 11.3632 25.4474 10.8918 25.8047C10.4198 26.1617 9.75545 26.1816 9.2588 25.8556L0.586922 20.1654C0.207043 19.9162 -0.0135162 19.5019 0.000644246 19.0654C0.014866 18.6292 0.261907 18.2289 0.657234 18.0023L9.72517 12.8007C10.2411 12.505 10.9009 12.5637 11.3484 12.9455C11.7966 13.3271 11.9263 13.948 11.6683 14.4628L10.4765 16.8447L23.036 16.8447C23.9628 16.8447 24.7167 16.1187 24.7167 15.2433L24.7167 6.56552C24.7167 5.69006 23.9628 4.99104 23.036 4.99104L9.13662 4.99104C7.89682 4.99104 6.89162 4.04157 6.89162 2.87025V2.12079C6.89162 0.949471 7.89682 -4.31449e-07 9.13662 -4.31449e-07L23.036 -4.31449e-07C26.8759 -5.83403e-05 30 2.93777 30 6.56558L30 15.2432C30.0001 18.871 26.8759 21.8357 23.036 21.8357Z" fill="white"/>
</svg>
